# xmcd
#
# Track frame offsets:
#	150
#	10500
#	26025
#	41175
#	56850
#	73200
#	92025
#	106949
#	124124
#	142649
#	152999
#	168524
#	183674
#	199349
#	215699
#	234524
#	249448
#	266623
#
# Disc length: 3801 seconds
#
# Revision: 2
# Processed by: cddbd v1.5.2PL0 Copyright (c) Steve Scherf et al.
# Submitted via: audiograbber 1.83.01
#
DISCID=070ed712
DTITLE=Various Artist - PHN-0101
DYEAR=2001
DGENRE=Karaoke
TTITLE0=George Strait - Don't Make Me Come Over There
TTITLE1=Patty Loveless - The Last Thing On My Mind
TTITLE2=Garth Brooks - Wild Horses
TTITLE3=Martina McBride - It's My Time
TTITLE4=Collin Raye - She's All That
TTITLE5=Sara Evans - I Could Not Ask For More
TTITLE6=Alabama - When It All Goes South
TTITLE7=Jessica Andrews - Who I Am
TTITLE8=Steve Holy - The Hunger
TTITLE9=George Strait - Don't Make Me Come Over There (vocal)
TTITLE10=Patty Loveless - The Last Thing On My Mind (vocal)
TTITLE11=Garth Brooks - Wild Horses (vocal)
TTITLE12=Martina McBride - It's My Time (vocal)
TTITLE13=Collin Raye - She's All That (vocal)
TTITLE14=Sara Evans - I Could Not Ask For More (vocal)
TTITLE15=Alabama - When It All Goes South (vocal)
TTITLE16=Jessica Andrews - Who I Am (vocal)
TTITLE17=Steve Holy - The Hunger (vocal)
EXTD=fixed vocal tracls
EXTT0=
EXTT1=
EXTT2=
EXTT3=
EXTT4=
EXTT5=
EXTT6=
EXTT7=
EXTT8=
EXTT9=
EXTT10=
EXTT11=
EXTT12=
EXTT13=
EXTT14=
EXTT15=
EXTT16=
EXTT17=
PLAYORDER=
